<svg xmlns="http://www.w3.org/2000/svg" style="display:none" aria-hidden="true">
  <!-- Contact + company glyph sprite. 24x24, currentColor stroke.
       Company marks are clean monogram/wordmark glyphs (NOT trademarked logos) —
       safe, distinctive, recruiter-recognizable category cues. -->

  <symbol id="ic-mail" viewBox="0 0 24 24" fill="none" stroke="currentColor" stroke-width="1.7" stroke-linecap="round" stroke-linejoin="round">
    <rect x="3" y="5.5" width="18" height="13" rx="2"/>
    <path d="M3.5 7l8.5 6 8.5-6"/>
  </symbol>
  <symbol id="ic-pin" viewBox="0 0 24 24" fill="none" stroke="currentColor" stroke-width="1.7" stroke-linecap="round" stroke-linejoin="round">
    <path d="M12 21s7-5.6 7-11a7 7 0 0 0-14 0c0 5.4 7 11 7 11z"/>
    <circle cx="12" cy="10" r="2.4"/>
  </symbol>
  <symbol id="ic-github" viewBox="0 0 24 24" fill="currentColor">
    <path d="M12 2.2A9.8 9.8 0 0 0 8.9 21.3c.49.09.67-.21.67-.47v-1.8c-2.73.59-3.3-1.16-3.3-1.16-.45-1.13-1.1-1.43-1.1-1.43-.9-.61.07-.6.07-.6 1 .07 1.52 1.02 1.52 1.02.88 1.52 2.31 1.08 2.88.83.09-.64.35-1.08.63-1.33-2.18-.25-4.47-1.09-4.47-4.85 0-1.07.38-1.95 1.02-2.64-.1-.25-.45-1.25.1-2.6 0 0 .83-.27 2.72 1a9.4 9.4 0 0 1 4.96 0c1.89-1.27 2.72-1 2.72-1 .55 1.35.2 2.35.1 2.6.64.69 1.02 1.57 1.02 2.64 0 3.77-2.3 4.6-4.49 4.84.36.31.67.92.67 1.85v2.74c0 .27.18.57.68.47A9.8 9.8 0 0 0 12 2.2z"/>
  </symbol>
  <symbol id="ic-linkedin" viewBox="0 0 24 24" fill="currentColor">
    <path d="M4.98 3.5a2.5 2.5 0 1 0 0 5 2.5 2.5 0 0 0 0-5zM3 9h4v12H3zM9 9h3.8v1.7h.05c.53-.95 1.83-1.95 3.77-1.95 4.03 0 4.78 2.5 4.78 5.75V21h-4v-5.3c0-1.27-.02-2.9-1.77-2.9-1.77 0-2.04 1.38-2.04 2.8V21H9z"/>
  </symbol>

  <!-- Company monogram glyphs (geometric, non-trademark) -->
  <!-- Amazon: smile-arc monogram -->
  <symbol id="co-amazon" viewBox="0 0 28 28" fill="none" stroke="currentColor" stroke-width="2" stroke-linecap="round" stroke-linejoin="round">
    <path d="M5 11.5h6.5M8.25 11.5v6"/>
    <path d="M5 19.5c4.2 2.6 12.3 2.6 17.5-.4"/>
    <path d="M20.5 18.2c.9-.9 1.4-2 1.5-3.4" />
  </symbol>
  <!-- MNNIT: chevron-N monogram -->
  <symbol id="co-mnnit" viewBox="0 0 28 28" fill="none" stroke="currentColor" stroke-width="2" stroke-linecap="round" stroke-linejoin="round">
    <path d="M6 21V8l8 9 8-9v13"/>
  </symbol>
  <!-- DU: column/pillar (university) monogram -->
  <symbol id="co-du" viewBox="0 0 28 28" fill="none" stroke="currentColor" stroke-width="2" stroke-linecap="round" stroke-linejoin="round">
    <path d="M5 11l9-5 9 5"/>
    <path d="M7 12v7M14 12v7M21 12v7"/>
    <path d="M5 21h18"/>
  </symbol>
</svg>
